<?xml version="1.0" encoding="utf-8"?>
<!-- Generator: Adobe Illustrator 22.0.1, SVG Export Plug-In . SVG Version: 6.00 Build 0)  -->
<svg version="1.1" id="Layer_1" xmlns="http://www.w3.org/2000/svg" xmlns:xlink="http://www.w3.org/1999/xlink" x="0px" y="0px"
	 viewBox="0 0 1200 1200" style="enable-background:new 0 0 1200 1200;" xml:space="preserve">
<style type="text/css">
	.st0{fill:#131313;}
	.st1{fill:#FFFFFF;}
</style>
<title>download</title>
<g>
	<rect class="st0" width="1201.3" height="1201.3"/>
	<g>
		<path class="st1" d="M901.5,689.6v131.6c0,36.8-30.6,66.7-68.2,66.7H368c-37.6,0-68.2-29.9-68.2-66.7V689.6h-70v131.6
			c0,74.5,62,135.1,138.2,135.1h465.2c76.2,0,138.2-60.6,138.2-135.1V689.6H901.5z"/>
		<path class="st1" d="M572,843.7c7,6.9,16.5,10.8,26.4,10.8h0.2c9.8,0.1,19.3-3.8,26.3-10.5l202.9-196.6c14.4-13.8,14.8-36.6,1-51
			c-0.2-0.2-0.5-0.5-0.7-0.7l-5.8-5.7c-7-6.9-16.5-10.8-26.4-10.8h-0.2c-9.8-0.1-19.3,3.8-26.3,10.5L646.1,708.9V291.2
			c0-25.4-21.2-46.2-47.3-46.2s-47.3,20.7-47.3,46.2v417L430,588.1c-7-6.9-16.5-10.8-26.4-10.8h-0.2c-9.8-0.1-19.3,3.8-26.3,10.5
			l-5.9,5.7c-14.4,13.8-14.8,36.6-1,50.9c0.2,0.2,0.5,0.5,0.7,0.7L572,843.7z"/>
	</g>
</g>
</svg>
