<?xml version="1.0" encoding="utf-8"?>
<!-- Generator: Adobe Illustrator 22.0.1, SVG Export Plug-In . SVG Version: 6.00 Build 0)  -->
<svg version="1.1" id="Layer_1" xmlns="http://www.w3.org/2000/svg" xmlns:xlink="http://www.w3.org/1999/xlink" x="0px" y="0px"
	 viewBox="0 0 1354.9 1354.9" style="enable-background:new 0 0 1354.9 1354.9;" xml:space="preserve">
<style type="text/css">
	.st0{fill:#131313;}
	.st1{fill:#FFFFFF;}
</style>
<title>instagram</title>
<g>
	<rect x="0" class="st0" width="1354.8" height="1354.8"/>
	<g>
		<path class="st1" d="M678.1,370.5c104.6,0,117,0.4,158.3,2.3c38.2,1.8,58.9,8.1,72.7,13.5c18.3,7.1,31.3,15.6,45,29.3
			s22.2,26.7,29.3,45c5.4,13.8,11.8,34.5,13.5,72.7c1.9,41.3,2.3,53.7,2.3,158.3s-0.4,117-2.3,158.3c-1.7,38.2-8.1,58.9-13.5,72.7
			c-7.1,18.3-15.6,31.3-29.3,45s-26.7,22.2-45,29.3c-13.8,5.4-34.5,11.7-72.7,13.5c-41.3,1.9-53.7,2.3-158.3,2.3s-117-0.4-158.3-2.3
			c-38.2-1.8-58.9-8.1-72.7-13.5c-18.3-7.1-31.3-15.6-45-29.3s-22.2-26.7-29.3-45c-5.4-13.8-11.7-34.5-13.5-72.7
			c-1.9-41.3-2.3-53.7-2.3-158.2s0.4-117,2.3-158.3c1.8-38.2,8.1-58.9,13.5-72.7c7.1-18.3,15.6-31.3,29.3-45s26.7-22.2,45-29.3
			c13.8-5.4,34.5-11.7,72.7-13.5C561.1,370.9,573.5,370.6,678.1,370.5 M678.1,300c-106.4,0-119.7,0.4-161.5,2.4s-70.2,8.5-95.1,18.2
			c-25.7,10-47.6,23.4-69.4,45.2S317,409.3,307,435.1c-9.7,24.9-16.3,53.4-18.2,95.1s-2.4,55.1-2.4,161.5s0.5,119.7,2.4,161.5
			s8.5,70.2,18.2,95.1c10,25.8,23.4,47.6,45.2,69.4c21.8,21.8,43.6,35.2,69.4,45.2c24.9,9.7,53.4,16.3,95.1,18.2s55.1,2.4,161.5,2.4
			s119.7-0.4,161.5-2.4s70.2-8.5,95.1-18.2c25.8-10,47.6-23.4,69.4-45.2c21.8-21.8,35.2-43.6,45.2-69.4
			c9.7-24.9,16.3-53.4,18.2-95.1s2.4-55.1,2.4-161.5s-0.4-119.7-2.4-161.5s-8.5-70.2-18.2-95.1c-10-25.8-23.4-47.6-45.2-69.4
			s-43.6-35.2-69.4-45.2c-24.9-9.7-53.4-16.3-95.1-18.2S784.5,300,678.1,300"/>
		<path class="st1" d="M678.1,490.5c-111.1,0-201.1,90-201.1,201.1s90,201.1,201.1,201.1s201.1-90,201.1-201.1
			S789.2,490.5,678.1,490.5 M678.1,822.2c-72.1,0-130.5-58.4-130.5-130.5c0-72.1,58.4-130.5,130.5-130.5
			c72.1,0,130.5,58.4,130.5,130.5C808.7,763.7,750.2,822.2,678.1,822.2"/>
		<path class="st1" d="M934.2,482.5c0,26-21,47-47,47s-47-21-47-47s21-47,47-47S934.2,456.6,934.2,482.5L934.2,482.5"/>
	</g>
</g>
</svg>
