<svg xmlns="http://www.w3.org/2000/svg" viewBox="0 0 600.07 600.11">
  <title>close-x</title>
  <g id="Layer_2" data-name="Layer 2">
    <g id="Layer_1-2" data-name="Layer 1">
      <path d="M600,550c-.59-13.35-5.08-25.79-14.65-35.36L572,501.33,535.75,465,482,411.31,416.12,345.4l-45.33-45.33,28.33-28.33,67.63-67.63,57.17-57.17L565,105.8c6.5-6.51,13.08-13,19.52-19.52l.85-.86A51.54,51.54,0,0,0,600,50c0-12.27-5.45-26.91-14.65-35.36C575.89,6,563.38-.53,550,0S524.24,5.1,514.67,14.67L501.37,28,465,64.38,411.3,118.11,345.4,184l-45.32,45.34L271.73,201,204.1,133.39,146.93,76.22,105.8,35.09C99.29,28.58,92.8,22,86.28,15.57l-.86-.86A51.59,51.59,0,0,0,50,0C37.8,0,23.16,5.52,14.71,14.71,6,24.24-.53,36.75,0,50S5.14,75.85,14.71,85.42L28,98.77l36.32,36.32,53.73,53.73,66,65.91,45.34,45.34L201,328.41,133.38,396,76.22,453.21,35.09,494.34c-6.51,6.5-13.08,13-19.52,19.52l-.86.85A51.66,51.66,0,0,0,0,550c0,12.3,5.49,27,14.68,35.39,9.53,8.75,22,15.24,35.36,14.65s25.78-5,35.35-14.65l13.35-13.34,36.32-36.33L188.82,482l65.91-65.91,45.35-45.34,28.34,28.34L396,466.75l57.17,57.17L494.34,565c6.5,6.5,13,13.08,19.52,19.52l.85.85A51.59,51.59,0,0,0,550,600c12.26,0,26.91-5.45,35.35-14.65C594.13,575.85,600.62,563.38,600,550Z" style="fill: #fff"/>
    </g>
  </g>
</svg>
