<?xml version="1.0" encoding="utf-8"?>
<!-- Generator: Adobe Illustrator 22.0.1, SVG Export Plug-In . SVG Version: 6.00 Build 0)  -->
<svg version="1.1" id="Capa_1" xmlns="http://www.w3.org/2000/svg" xmlns:xlink="http://www.w3.org/1999/xlink" x="0px" y="0px"
	 viewBox="0 0 1354.8 1354.8" style="enable-background:new 0 0 1354.8 1354.8;" xml:space="preserve">
<g>
	<rect style="fill:#131313;" width="1354.8" height="1354.8"/>
	<path style="fill:#FFFFFF;" d="M1030.84,350.76H323.96c-41.51,0-75.38,33.83-75.38,75.38v502.52c0,41.41,33.72,75.38,75.38,75.38
		h706.88c41.41,0,75.38-33.72,75.38-75.38V426.14C1106.22,384.73,1072.5,350.76,1030.84,350.76z M1020.43,401.01L679,742.45
		L334.61,401.01H1020.43z M298.83,918.26V436.3l242.01,239.94L298.83,918.26z M334.37,953.79l242.17-242.17l84.85,84.13
		c9.82,9.74,25.67,9.71,35.46-0.08l82.74-82.74l240.85,240.85H334.37z M1055.97,918.25L815.11,677.4l240.85-240.86V918.25z"/>
</g>
</svg>
