<?xml version="1.0" encoding="utf-8"?>
<!-- Generator: Adobe Illustrator 22.0.1, SVG Export Plug-In . SVG Version: 6.00 Build 0)  -->
<svg version="1.1" id="Layer_1" xmlns="http://www.w3.org/2000/svg" xmlns:xlink="http://www.w3.org/1999/xlink" x="0px" y="0px"
	 viewBox="0 0 1354.8 1354.9" style="enable-background:new 0 0 1354.8 1354.9;" xml:space="preserve">
<style type="text/css">
	.st0{fill:#131313;}
	.st1{fill:#FFFFFF;}
</style>
<title>twitter</title>
<g>
	<rect x="0" class="st0" width="1354.8" height="1354.8"/>
	<path class="st1" d="M347.4,949.8c71.4,45.9,154.5,70.2,239.4,70.2c290,0,453.7-244.9,443.9-464.5c30.6-22.1,57-49.5,77.9-80.8
		c-28.5,12.6-58.7,20.9-89.7,24.6c32.6-19.5,57-50.2,68.6-86.4c-30.6,18.2-64.2,31-99.2,37.9c-29.5-31.5-70.8-49.4-114-49.3
		c-100.8,0-174.9,94.1-152.1,191.8c-129.8-6.5-244.9-68.7-321.9-163.2c-40.9,70.2-21.2,162,48.3,208.5c-24.8-0.8-49.1-7.5-70.8-19.5
		c-1.7,72.4,50.2,140,125.3,155.1c-23,6.3-47.1,7.2-70.5,2.7c20.4,63.6,79,107.2,145.8,108.4C513.2,936.5,430,959.8,347.4,949.8z"/>
</g>
</svg>
